<mxfile host="app.diagrams.net" agent="Mozilla/5.0 (Windows NT 10.0; Win64; x64) AppleWebKit/537.36 (KHTML, like Gecko) Chrome/133.0.0.0 Safari/537.36" version="26.0.16">
  <diagram name="Pagina-1" id="nvUA8hTN0ArPdRxiNUkl">
    <mxGraphModel dx="2261" dy="746" grid="1" gridSize="10" guides="1" tooltips="1" connect="1" arrows="1" fold="1" page="1" pageScale="1" pageWidth="827" pageHeight="1169" math="0" shadow="0">
      <root>
        <mxCell id="0" />
        <mxCell id="1" parent="0" />
        <mxCell id="NJ86-hNVcK6c7BylY9Zn-1" value="Start inlezen" style="ellipse;whiteSpace=wrap;html=1;" vertex="1" parent="1">
          <mxGeometry x="354" y="50" width="120" height="80" as="geometry" />
        </mxCell>
        <mxCell id="NJ86-hNVcK6c7BylY9Zn-2" value="Vraag de gebruiker om 3 opties" style="rounded=0;whiteSpace=wrap;html=1;" vertex="1" parent="1">
          <mxGeometry x="354" y="190" width="120" height="60" as="geometry" />
        </mxCell>
        <mxCell id="NJ86-hNVcK6c7BylY9Zn-3" value="Optie 1: Toon alle studentgegevens" style="rounded=0;whiteSpace=wrap;html=1;" vertex="1" parent="1">
          <mxGeometry x="354" y="310" width="120" height="60" as="geometry" />
        </mxCell>
        <mxCell id="NJ86-hNVcK6c7BylY9Zn-4" value="Optie 3: Afsluiten" style="rounded=0;whiteSpace=wrap;html=1;" vertex="1" parent="1">
          <mxGeometry x="354" y="525" width="120" height="60" as="geometry" />
        </mxCell>
        <mxCell id="NJ86-hNVcK6c7BylY9Zn-5" value="Optie 2: Zoek een student op naam" style="rounded=0;whiteSpace=wrap;html=1;" vertex="1" parent="1">
          <mxGeometry x="354" y="420" width="120" height="60" as="geometry" />
        </mxCell>
        <mxCell id="NJ86-hNVcK6c7BylY9Zn-6" value="Controleer of optie 3 is geselecteerd" style="rhombus;whiteSpace=wrap;html=1;" vertex="1" parent="1">
          <mxGeometry x="130" y="492.5" width="150" height="125" as="geometry" />
        </mxCell>
        <mxCell id="NJ86-hNVcK6c7BylY9Zn-7" value="Controleer of optie 2 is geselecteerd" style="rhombus;whiteSpace=wrap;html=1;" vertex="1" parent="1">
          <mxGeometry x="550" y="398.75" width="170" height="102.5" as="geometry" />
        </mxCell>
        <mxCell id="NJ86-hNVcK6c7BylY9Zn-8" value="Controleer of optie 1 is geselecteerd" style="rhombus;whiteSpace=wrap;html=1;" vertex="1" parent="1">
          <mxGeometry x="550" y="277.5" width="170" height="112.5" as="geometry" />
        </mxCell>
        <mxCell id="NJ86-hNVcK6c7BylY9Zn-10" value="Sluit af" style="ellipse;whiteSpace=wrap;html=1;" vertex="1" parent="1">
          <mxGeometry x="-80" y="515" width="120" height="80" as="geometry" />
        </mxCell>
        <mxCell id="NJ86-hNVcK6c7BylY9Zn-11" value="" style="shape=flexArrow;endArrow=classic;html=1;rounded=0;exitX=0;exitY=0.5;exitDx=0;exitDy=0;entryX=1;entryY=0.5;entryDx=0;entryDy=0;" edge="1" parent="1" source="NJ86-hNVcK6c7BylY9Zn-6" target="NJ86-hNVcK6c7BylY9Zn-10">
          <mxGeometry width="50" height="50" relative="1" as="geometry">
            <mxPoint x="130" y="550" as="sourcePoint" />
            <mxPoint x="180" y="500" as="targetPoint" />
          </mxGeometry>
        </mxCell>
        <mxCell id="NJ86-hNVcK6c7BylY9Zn-12" value="" style="shape=flexArrow;endArrow=classic;html=1;rounded=0;entryX=1;entryY=0.5;entryDx=0;entryDy=0;exitX=0;exitY=0.5;exitDx=0;exitDy=0;" edge="1" parent="1" source="NJ86-hNVcK6c7BylY9Zn-4" target="NJ86-hNVcK6c7BylY9Zn-6">
          <mxGeometry width="50" height="50" relative="1" as="geometry">
            <mxPoint x="353" y="564" as="sourcePoint" />
            <mxPoint x="400" y="510" as="targetPoint" />
          </mxGeometry>
        </mxCell>
        <mxCell id="NJ86-hNVcK6c7BylY9Zn-13" value="" style="shape=flexArrow;endArrow=classic;html=1;rounded=0;exitX=1;exitY=0.5;exitDx=0;exitDy=0;entryX=0;entryY=0.5;entryDx=0;entryDy=0;" edge="1" parent="1" source="NJ86-hNVcK6c7BylY9Zn-5" target="NJ86-hNVcK6c7BylY9Zn-7">
          <mxGeometry width="50" height="50" relative="1" as="geometry">
            <mxPoint x="480" y="460" as="sourcePoint" />
            <mxPoint x="530" y="410" as="targetPoint" />
          </mxGeometry>
        </mxCell>
        <mxCell id="NJ86-hNVcK6c7BylY9Zn-15" value="" style="shape=flexArrow;endArrow=classic;html=1;rounded=0;exitX=1;exitY=0.383;exitDx=0;exitDy=0;entryX=0;entryY=0.5;entryDx=0;entryDy=0;exitPerimeter=0;" edge="1" parent="1" source="NJ86-hNVcK6c7BylY9Zn-3" target="NJ86-hNVcK6c7BylY9Zn-8">
          <mxGeometry width="50" height="50" relative="1" as="geometry">
            <mxPoint x="490" y="350" as="sourcePoint" />
            <mxPoint x="540" y="300" as="targetPoint" />
          </mxGeometry>
        </mxCell>
        <mxCell id="NJ86-hNVcK6c7BylY9Zn-16" value="Pak all gegevens uit het CSV bestand" style="rounded=0;whiteSpace=wrap;html=1;" vertex="1" parent="1">
          <mxGeometry x="790" y="303.75" width="120" height="60" as="geometry" />
        </mxCell>
        <mxCell id="NJ86-hNVcK6c7BylY9Zn-18" value="" style="shape=flexArrow;endArrow=classic;html=1;rounded=0;entryX=0;entryY=0.5;entryDx=0;entryDy=0;" edge="1" parent="1" target="NJ86-hNVcK6c7BylY9Zn-20">
          <mxGeometry width="50" height="50" relative="1" as="geometry">
            <mxPoint x="720" y="450" as="sourcePoint" />
            <mxPoint x="770" y="400" as="targetPoint" />
          </mxGeometry>
        </mxCell>
        <mxCell id="NJ86-hNVcK6c7BylY9Zn-19" value="" style="shape=flexArrow;endArrow=classic;html=1;rounded=0;exitX=1;exitY=0.5;exitDx=0;exitDy=0;entryX=0;entryY=0.5;entryDx=0;entryDy=0;" edge="1" parent="1" source="NJ86-hNVcK6c7BylY9Zn-8" target="NJ86-hNVcK6c7BylY9Zn-16">
          <mxGeometry width="50" height="50" relative="1" as="geometry">
            <mxPoint x="710" y="320" as="sourcePoint" />
            <mxPoint x="760" y="270" as="targetPoint" />
          </mxGeometry>
        </mxCell>
        <mxCell id="NJ86-hNVcK6c7BylY9Zn-20" value="Pak all gegevens uit het CSV bestand" style="rounded=0;whiteSpace=wrap;html=1;" vertex="1" parent="1">
          <mxGeometry x="790" y="420" width="120" height="60" as="geometry" />
        </mxCell>
        <mxCell id="NJ86-hNVcK6c7BylY9Zn-22" value="Controleer of alle gegevens zijn weergegeven" style="rhombus;whiteSpace=wrap;html=1;" vertex="1" parent="1">
          <mxGeometry x="990" y="278.75" width="160" height="110" as="geometry" />
        </mxCell>
        <mxCell id="NJ86-hNVcK6c7BylY9Zn-23" value="" style="shape=flexArrow;endArrow=classic;html=1;rounded=0;exitX=1;exitY=0.5;exitDx=0;exitDy=0;entryX=0;entryY=0.5;entryDx=0;entryDy=0;" edge="1" parent="1" source="NJ86-hNVcK6c7BylY9Zn-16" target="NJ86-hNVcK6c7BylY9Zn-22">
          <mxGeometry width="50" height="50" relative="1" as="geometry">
            <mxPoint x="930" y="330" as="sourcePoint" />
            <mxPoint x="980" y="280" as="targetPoint" />
          </mxGeometry>
        </mxCell>
        <mxCell id="NJ86-hNVcK6c7BylY9Zn-24" value="" style="shape=flexArrow;endArrow=classic;html=1;rounded=0;exitX=1;exitY=0.5;exitDx=0;exitDy=0;entryX=0;entryY=0.383;entryDx=0;entryDy=0;entryPerimeter=0;" edge="1" parent="1" source="NJ86-hNVcK6c7BylY9Zn-22">
          <mxGeometry width="50" height="50" relative="1" as="geometry">
            <mxPoint x="1160" y="330" as="sourcePoint" />
            <mxPoint x="1230" y="332.98" as="targetPoint" />
          </mxGeometry>
        </mxCell>
        <mxCell id="NJ86-hNVcK6c7BylY9Zn-25" value="Controleer of alle gegevens zijn weergegeven" style="rhombus;whiteSpace=wrap;html=1;" vertex="1" parent="1">
          <mxGeometry x="990" y="395" width="160" height="110" as="geometry" />
        </mxCell>
        <mxCell id="NJ86-hNVcK6c7BylY9Zn-26" value="" style="shape=flexArrow;endArrow=classic;html=1;rounded=0;exitX=1;exitY=0.5;exitDx=0;exitDy=0;entryX=0;entryY=0.5;entryDx=0;entryDy=0;" edge="1" parent="1" target="NJ86-hNVcK6c7BylY9Zn-25">
          <mxGeometry width="50" height="50" relative="1" as="geometry">
            <mxPoint x="910" y="449.5" as="sourcePoint" />
            <mxPoint x="990" y="449.5" as="targetPoint" />
          </mxGeometry>
        </mxCell>
        <mxCell id="NJ86-hNVcK6c7BylY9Zn-27" value="Toon all gegevens" style="ellipse;whiteSpace=wrap;html=1;" vertex="1" parent="1">
          <mxGeometry x="1230" y="293.75" width="120" height="80" as="geometry" />
        </mxCell>
      </root>
    </mxGraphModel>
  </diagram>
</mxfile>
